<svg id="dashboard2" xmlns="http://www.w3.org/2000/svg" width="25" height="25" viewBox="0 0 25 25">
  <path id="Path_2" data-name="Path 2" d="M9.949,0H1.882A1.884,1.884,0,0,0,0,1.882v4.84A1.884,1.884,0,0,0,1.882,8.6H9.949a1.884,1.884,0,0,0,1.882-1.882V1.882A1.884,1.884,0,0,0,9.949,0Zm0,0" fill="#3b74f0"/>
  <path id="Path_3" data-name="Path 3" d="M9.949,213.332H1.882A1.884,1.884,0,0,0,0,215.214v11.294a1.884,1.884,0,0,0,1.882,1.882H9.949a1.884,1.884,0,0,0,1.882-1.882V215.214A1.884,1.884,0,0,0,9.949,213.332Zm0,0" transform="translate(0 -203.39)" fill="#3b74f0"/>
  <path id="Path_4" data-name="Path 4" d="M287.281,341.332h-8.067a1.884,1.884,0,0,0-1.882,1.882v4.84a1.884,1.884,0,0,0,1.882,1.882h8.067a1.884,1.884,0,0,0,1.882-1.882v-4.84A1.884,1.884,0,0,0,287.281,341.332Zm0,0" transform="translate(-264.164 -324.937)" fill="#3b74f0"/>
  <path id="Path_5" data-name="Path 5" d="M287.281,0h-8.067a1.884,1.884,0,0,0-1.882,1.882V13.176a1.884,1.884,0,0,0,1.882,1.882h8.067a1.884,1.884,0,0,0,1.882-1.882V1.882A1.884,1.884,0,0,0,287.281,0Zm0,0" transform="translate(-264.164)" fill="#3b74f0"/>
</svg>
