<svg xmlns="http://www.w3.org/2000/svg" width="25" height="25" viewBox="0 0 25 25">
  <g id="food2" transform="translate(-0.153)">
    <g id="Group_10" data-name="Group 10" transform="translate(1.702)">
      <g id="Group_9" data-name="Group 9">
        <path id="Path_10" data-name="Path 10" d="M51.448,21.256l-9.744-9.8L30.321,0h-.89L29.25.464a8.256,8.256,0,0,0-.592,3.625A5.135,5.135,0,0,0,30.084,7.36L38.971,16.3l1.172-1.179,8.216,9.243a2.192,2.192,0,0,0,3.09-3.109Z" transform="translate(-28.636)" fill="#3b74f0"/>
      </g>
    </g>
    <g id="Group_12" data-name="Group 12" transform="translate(0.153 13.009)">
      <g id="Group_11" data-name="Group 11">
        <path id="Path_11" data-name="Path 11" d="M8.666,291.442l-7.8,7.8A2.448,2.448,0,0,0,4.33,302.7l7.8-7.8Z" transform="translate(-0.153 -291.442)" fill="#3b74f0"/>
      </g>
    </g>
    <g id="Group_14" data-name="Group 14" transform="translate(12.241 0.02)">
      <g id="Group_13" data-name="Group 13">
        <path id="Path_12" data-name="Path 12" d="M286.092,4.976,281.669,9.4l-1.154-1.154,4.423-4.423-1.154-1.154-4.423,4.423-1.154-1.154,4.423-4.423L281.477.361,275.708,6.13a4.072,4.072,0,0,0-1.187,2.639,2.351,2.351,0,0,1-.167.737l3.747,3.747a2.348,2.348,0,0,1,.737-.167,4.071,4.071,0,0,0,2.639-1.187l5.769-5.769Z" transform="translate(-274.354 -0.361)" fill="#3b74f0"/>
      </g>
    </g>
  </g>
</svg>
