<svg xmlns="http://www.w3.org/2000/svg" width="25" height="25" viewBox="0 0 25 25">
  <g id="logout" transform="translate(0 -0.004)">
    <path id="Path_13" data-name="Path 13" d="M17.5,13.545a1.109,1.109,0,0,0-1.167,1.042v4.167A1.111,1.111,0,0,1,15.167,19.8h-3.5V4.17a2.132,2.132,0,0,0-1.589-1.98l-.345-.1h5.434a1.111,1.111,0,0,1,1.167,1.042V6.254a1.174,1.174,0,0,0,2.333,0V3.129A3.333,3.333,0,0,0,15.167,0H2.625A1.013,1.013,0,0,0,2.5.027C2.444.023,2.39,0,2.333,0A2.221,2.221,0,0,0,0,2.087v18.75a2.132,2.132,0,0,0,1.589,1.98l7.021,2.09a2.684,2.684,0,0,0,.723.1,2.221,2.221,0,0,0,2.333-2.083V21.879h3.5a3.333,3.333,0,0,0,3.5-3.125V14.587A1.109,1.109,0,0,0,17.5,13.545Zm0,0"/>
    <path id="Path_14" data-name="Path 14" d="M289.824,111.674l-4.667-4.667a1.166,1.166,0,0,0-1.991.825v3.5H278.5a1.167,1.167,0,1,0,0,2.333h4.667v3.5a1.166,1.166,0,0,0,1.991.825l4.667-4.667a1.165,1.165,0,0,0,0-1.65Zm0,0" transform="translate(-265.166 -101.9)"/>
  </g>
</svg>
