<svg xmlns="http://www.w3.org/2000/svg" width="25" height="25" viewBox="0 0 25 25">
  <path id="order2" d="M14.246,1.57v8.472h4.608V1.57a2.312,2.312,0,0,0-4.608,0ZM2.913,5.267a.693.693,0,0,1,0-1.036.843.843,0,0,1,1.124,0l.435.4,1.407-1.3a2.616,2.616,0,0,0-3.242.191,2.145,2.145,0,0,0,0,3.207,2.609,2.609,0,0,0,3.478,0,2.151,2.151,0,0,0,.65-2.143l-1.73,1.6a.843.843,0,0,1-1.124,0ZM7.008,2.3l1-.92a.843.843,0,0,1,1.123,0,.693.693,0,0,1,0,1.036L7.994,3.457A3.518,3.518,0,0,1,7.238,7.77a4.294,4.294,0,0,1-5.725,0,3.529,3.529,0,0,1,0-5.278,4.3,4.3,0,0,1,5.5-.2ZM-.585,17.61a.765.765,0,0,0-.795.732.765.765,0,0,0,.795.732.765.765,0,0,0,.795-.732A.766.766,0,0,0-.585,17.61Zm3.178,1.465a.735.735,0,1,1,0-1.465h7.68a.735.735,0,1,1,0,1.465ZM-.585,14.68a.765.765,0,0,0-.795.732.765.765,0,0,0,.795.732.765.765,0,0,0,.795-.732A.765.765,0,0,0-.585,14.68Zm3.178,1.465a.735.735,0,1,1,0-1.465h7.68a.735.735,0,1,1,0,1.465Zm11.653-4.639V22.249a.765.765,0,0,1-.794.732H-3.763a.765.765,0,0,1-.794-.732V1.5A3.679,3.679,0,0,1-.743-2.019H16.55A3.759,3.759,0,0,1,20.443,1.57v9.2a.765.765,0,0,1-.795.732Zm-.83-12.06a3.387,3.387,0,0,0-.759,2.124V21.516H-2.968V1.5A2.148,2.148,0,0,1-.743-.554Zm-14,12.3a.765.765,0,0,0-.795.732.765.765,0,0,0,.795.732.766.766,0,0,0,.795-.732A.765.765,0,0,0-.585,11.751Zm3.178,1.465h7.68a.735.735,0,1,0,0-1.465H2.593a.735.735,0,1,0,0,1.465Zm0,0" transform="translate(4.557 2.019)" fill="#3b74f0" fill-rule="evenodd"/>
</svg>
