<svg xmlns="http://www.w3.org/2000/svg" width="25" height="25.002" viewBox="0 0 25 25.002">
  <g id="support2" transform="translate(-0.024)">
    <g id="Group_2" data-name="Group 2" transform="translate(10.183)">
      <g id="Group_1" data-name="Group 1">
        <path id="Path_6" data-name="Path 6" d="M213.1,0a3.109,3.109,0,0,0-3.069,3.069A3.109,3.109,0,0,0,213.1,6.139,3.07,3.07,0,0,0,213.1,0Z" transform="translate(-210.029 0)" fill="#3b74f0"/>
      </g>
    </g>
    <g id="Group_4" data-name="Group 4" transform="translate(8.668 5.919)">
      <g id="Group_3" data-name="Group 3">
        <path id="Path_7" data-name="Path 7" d="M187.959,122a4.5,4.5,0,0,1-3.351,1.51,4.611,4.611,0,0,1-3.4-1.51,4.494,4.494,0,0,0-1.178,3.019v.755a.754.754,0,0,0,.755.755h7.6a.754.754,0,0,0,.755-.755v-.755A4.494,4.494,0,0,0,187.959,122Z" transform="translate(-180.029 -122)" fill="#3b74f0"/>
      </g>
    </g>
    <g id="Group_6" data-name="Group 6" transform="translate(0.024 13.859)">
      <g id="Group_5" data-name="Group 5" transform="translate(0)">
        <path id="Path_8" data-name="Path 8" d="M7.317,299.079,3.47,291.368a1.509,1.509,0,0,0-2.021-.679l-1.005.5A.755.755,0,0,0,.1,292.2l4.529,9.057a.756.756,0,0,0,1.011.339l.992-.492A1.51,1.51,0,0,0,7.317,299.079Z" transform="translate(-0.024 -290.532)" fill="#3b74f0"/>
      </g>
    </g>
    <g id="Group_8" data-name="Group 8" transform="translate(3.742 11.139)">
      <g id="Group_7" data-name="Group 7">
        <path id="Path_9" data-name="Path 9" d="M109.682,237.043a1.5,1.5,0,0,0-1.993.2l-4.126,5.072a1.824,1.824,0,0,1-1.117.483H98.929a.755.755,0,1,1,0-1.51h3.019a1.51,1.51,0,1,0,0-3.019H97.993c-.376,0-.564-.239-.86-.5a5.252,5.252,0,0,0-4.686-1.147,5.506,5.506,0,0,0-2.317,1.157l-.022-.018-1.092.961,4.29,8.6h8.642a4.547,4.547,0,0,0,3.623-1.811l4.428-6.34A1.521,1.521,0,0,0,109.682,237.043Z" transform="translate(-89.016 -236.479)" fill="#3b74f0"/>
      </g>
    </g>
  </g>
</svg>
