<svg xmlns="http://www.w3.org/2000/svg" width="31.578" height="36.939" viewBox="0 0 31.578 36.939">
  <g id="user" transform="translate(0 0)">
    <path id="Path_15" data-name="Path 15" d="M96.309,17.794a9.173,9.173,0,0,0,6.559-2.607,8.435,8.435,0,0,0,2.718-6.29,8.436,8.436,0,0,0-2.718-6.29,9.557,9.557,0,0,0-13.118,0A8.435,8.435,0,0,0,87.032,8.9a8.435,8.435,0,0,0,2.718,6.291A9.175,9.175,0,0,0,96.309,17.794Zm0,0" transform="translate(-80.753 0)"/>
    <path id="Path_16" data-name="Path 16" d="M31.5,257.877a21.471,21.471,0,0,0-.307-2.334,18.023,18.023,0,0,0-.588-2.347,11.452,11.452,0,0,0-.988-2.189,8.286,8.286,0,0,0-1.491-1.9,6.6,6.6,0,0,0-2.141-1.313,7.563,7.563,0,0,0-2.733-.483,2.813,2.813,0,0,0-1.482.613c-.444.283-.964.61-1.543.971a8.954,8.954,0,0,1-2,.859,7.937,7.937,0,0,1-4.885,0,8.934,8.934,0,0,1-2-.858c-.574-.358-1.094-.685-1.545-.972a2.809,2.809,0,0,0-1.481-.613,7.552,7.552,0,0,0-2.733.483,6.591,6.591,0,0,0-2.142,1.313,8.287,8.287,0,0,0-1.49,1.9A11.474,11.474,0,0,0,.97,253.2a18.066,18.066,0,0,0-.588,2.346,21.4,21.4,0,0,0-.307,2.335c-.05.707-.076,1.44-.076,2.181a6.057,6.057,0,0,0,1.867,4.64,6.816,6.816,0,0,0,4.81,1.712H24.9a6.815,6.815,0,0,0,4.81-1.712,6.054,6.054,0,0,0,1.867-4.641c0-.744-.026-1.478-.077-2.182Zm0,0" transform="translate(0 -229.473)"/>
  </g>
</svg>
